HIERARCHY
ROOT Hips
{
	OFFSET 0.0000 0.0000 0.0000
	CHANNELS 6 Xposition Yposition Zposition Zrotation Xrotation Yrotation
	JOINT Ab
	{
		OFFSET -0.0000 8.0846 -0.0000
		CHANNELS 3 Zrotation Xrotation Yrotation
		JOINT Chest
		{
			OFFSET -0.0000 25.7002 -0.0000
			CHANNELS 3 Zrotation Xrotation Yrotation
			JOINT Neck
			{
				OFFSET -0.0000 25.7002 0.0000
				CHANNELS 3 Zrotation Xrotation Yrotation
				JOINT Head
				{
					OFFSET -0.0000 10.7556 0.0000
					CHANNELS 3 Zrotation Xrotation Yrotation
					End Site
					{
						OFFSET -0.0000 16.6222 0.0000
					}
				}
			}
			JOINT LeftCollar
			{
				OFFSET -0.0000 25.7002 0.0000
				CHANNELS 3 Zrotation Xrotation Yrotation
				JOINT LeftShoulder
				{
					OFFSET 19.5556 -0.0000 0.0000
					CHANNELS 3 Zrotation Xrotation Yrotation
					JOINT LeftElbow
					{
						OFFSET 27.2833 0.0000 0.0000
						CHANNELS 3 Zrotation Xrotation Yrotation
						JOINT LeftWrist
						{
							OFFSET 23.7914 0.0000 0.0000
							CHANNELS 3 Zrotation Xrotation Yrotation
							End Site
							{
								OFFSET 0.0000 -14.6667 0.0000
							}
						}
					}
				}
			}
			JOINT RightCollar
			{
				OFFSET -0.0000 25.7002 0.0000
				CHANNELS 3 Zrotation Xrotation Yrotation
				JOINT RightShoulder
				{
					OFFSET -19.5556 0.0000 0.0000
					CHANNELS 3 Zrotation Xrotation Yrotation
					JOINT RightElbow
					{
						OFFSET -27.2833 0.0000 0.0000
						CHANNELS 3 Zrotation Xrotation Yrotation
						JOINT RightWrist
						{
							OFFSET -23.7914 0.0000 0.0000
							CHANNELS 3 Zrotation Xrotation Yrotation
							End Site
							{
								OFFSET -0.0000 -14.6667 0.0000
							}
						}
					}
				}
			}
		}
	}
	JOINT LeftHip
	{
		OFFSET 11.7333 0.0000 0.0000
		CHANNELS 3 Zrotation Xrotation Yrotation
		JOINT LeftKnee
		{
			OFFSET -0.0000 -39.5330 0.0000
			CHANNELS 3 Zrotation Xrotation Yrotation
			JOINT LeftAnkle
			{
				OFFSET -0.0000 -43.0504 0.0000
				CHANNELS 3 Zrotation Xrotation Yrotation
				End Site
				{
					OFFSET -0.0000 -4.8889 16.6222
				}
			}
		}
	}
	JOINT RightHip
	{
		OFFSET -11.7333 0.0000 0.0000
		CHANNELS 3 Zrotation Xrotation Yrotation
		JOINT RightKnee
		{
			OFFSET -0.0000 -39.5330 0.0000
			CHANNELS 3 Zrotation Xrotation Yrotation
			JOINT RightAnkle
			{
				OFFSET -0.0000 -43.0504 0.0000
				CHANNELS 3 Zrotation Xrotation Yrotation
				End Site
				{
					OFFSET -0.0000 -4.8889 16.6222
				}
			}
		}
	}
}
MOTION
Frames: 19
Frame Time: 0.010000
-0.5107 88.7641 190.0754 2.1674 358.2786 177.2417 2.0955 0.2407 358.3964 358.0725 11.0610 358.5887 2.0069 343.9426 1.9782 2.1042 8.4019 1.5373 338.4582 358.1923 9.4820 300.6277 29.9493 356.3230 18.9932 353.3323 321.8130 81.7478 359.6341 339.7136 23.4477 358.8097 354.2774 51.7703 49.7430 16.3530 336.1078 352.0167 36.4743 275.6517 350.7931 21.4385 3.0932 356.0191 357.8704 359.4642 12.0066 357.8454 354.3710 349.6159 21.9380 0.7956 351.3215 359.6557 359.1218 19.7778 4.4133 358.9211 343.5638 337.8810 
-0.5580 88.7632 190.0365 2.1632 358.3091 177.1651 2.1231 0.3811 358.4259 358.0288 11.0367 358.6228 1.9836 343.9503 2.0137 2.1098 8.3857 1.5816 338.4532 358.1568 9.5985 300.6324 30.0826 356.3093 19.0209 353.3543 321.8791 82.1885 359.4654 340.0527 23.4344 358.8110 354.3471 51.4915 49.9135 16.6518 336.0041 351.9405 36.6618 275.7458 350.4246 20.9543 3.0636 356.0375 358.1296 359.4953 12.1101 357.5761 354.4139 349.5152 22.0026 0.7613 351.3595 359.7329 359.1323 19.7881 4.4284 358.3481 343.6349 337.7466 
-0.6128 88.7620 190.0125 2.1431 358.2563 177.1246 2.1197 0.4435 358.4565 357.9946 11.0174 358.6583 2.0286 343.9146 1.9994 1.9929 8.4182 1.5633 338.4397 358.1745 9.6493 300.6991 30.1559 356.2736 19.1096 353.3286 321.8477 81.6712 359.5274 339.9571 23.4366 358.8389 354.2962 50.9658 50.2282 17.2583 336.0604 351.9394 36.9441 275.3867 350.7052 21.1550 3.0344 355.8612 357.8992 359.3873 12.3967 357.7341 354.5825 349.3389 22.1145 0.7021 351.3039 359.7862 359.1570 19.8153 4.4393 358.3484 343.6183 337.7065 
-0.6633 88.7650 189.9763 2.1340 358.2286 177.0867 2.1361 0.5155 358.4975 357.9421 11.0373 358.7072 2.0034 343.8060 1.9762 1.9983 8.5154 1.5400 338.4408 358.1400 9.6927 300.7732 30.4015 356.2551 19.2594 353.2368 321.8298 81.6045 359.4430 340.1420 23.4436 358.8038 354.2404 50.5549 50.4816 17.7627 335.8903 351.7772 37.1813 275.4784 350.7633 20.9441 2.9973 355.8207 357.8753 359.3627 12.4837 357.7390 354.6269 349.2504 22.1683 0.6643 351.2965 359.8221 359.1603 19.8072 4.4228 358.3669 343.5982 337.7268 
-0.7158 88.7644 189.9424 2.1265 358.1633 177.0500 2.1264 0.5609 358.5210 357.9400 11.0222 358.7304 2.0045 343.8325 1.9600 1.9555 8.4826 1.5285 338.4445 358.1607 9.6411 300.7520 30.2347 356.3520 19.1446 353.3014 321.7648 81.6002 359.3799 340.0699 23.4321 358.8330 354.2465 50.2906 50.6518 18.1051 335.8033 351.6764 37.4451 275.6795 350.6801 20.9057 2.9701 355.7345 357.8812 359.3284 12.5867 357.6968 354.6909 349.1678 22.2590 0.6246 351.2537 359.8523 359.1717 19.7938 4.4044 358.3688 343.5801 337.7471 
-0.7742 88.7635 189.8960 2.1305 358.1509 177.0032 2.0864 0.5142 358.3027 358.2898 11.1222 358.4790 1.2336 344.1240 1.9630 2.4470 8.2280 1.6250 338.2430 358.1465 9.6344 300.5787 29.9766 356.4730 19.1592 353.3256 321.7389 81.5092 359.3791 340.0753 23.2530 358.8706 354.5007 49.6069 50.9479 18.7373 335.7899 351.7015 37.4418 275.4858 350.6031 20.6651 2.9450 355.7450 357.8825 359.3040 12.6190 357.6718 354.6918 349.0804 22.3025 0.5922 351.2750 359.8938 359.1706 19.7804 4.4266 358.4233 343.5412 337.7431 
-0.8303 88.7648 189.8522 2.1284 358.0901 176.9836 2.0603 0.5435 358.3556 358.3088 11.1837 358.5318 1.2802 343.9330 2.1024 2.3142 8.3998 1.7585 338.2028 358.0947 9.8766 300.6635 30.1361 356.3371 19.3231 353.2476 321.7475 81.3695 359.3421 340.2461 23.2205 358.9081 354.6432 49.1648 51.1747 19.2354 335.7259 351.6028 37.6940 275.2729 350.4334 20.7382 2.9153 355.6917 357.8710 359.2782 12.6678 357.6865 354.8292 349.0331 22.3503 0.5536 351.2647 359.9415 359.1898 19.7328 4.3925 358.4737 343.5271 337.7466 
-0.8904 88.7663 189.8171 2.1247 357.9971 176.9395 1.8686 0.7869 358.5822 358.5397 10.8160 358.7365 1.4074 344.0105 2.0018 2.0037 8.4398 1.6467 338.0847 358.0944 9.7448 300.6566 30.0153 356.5941 19.1024 353.3588 321.7057 81.4501 359.2640 340.0251 23.1231 358.8893 354.4416 49.0998 51.6660 19.5179 335.2654 351.3982 37.4008 274.8395 349.0461 21.1649 2.8882 355.6059 357.8613 359.2466 12.7264 357.6649 354.8423 348.9470 22.4061 0.5133 351.1906 359.9729 359.1995 19.7319 4.4069 358.3645 343.5248 337.7221 
-0.9549 88.7667 189.7573 2.1463 357.9559 176.8749 1.9203 0.8708 358.6096 358.5145 10.7820 358.7660 1.3427 344.0370 1.9146 2.0854 8.3935 1.5684 338.0991 358.1252 9.6137 300.5898 29.9613 356.6486 19.0800 353.3328 321.7022 81.3550 359.2932 339.9284 23.1523 358.8377 354.2439 48.6315 51.8822 20.0570 335.0777 351.3262 37.6969 274.8999 349.3952 21.0415 2.8799 355.6029 357.8393 359.2096 12.7541 357.6816 354.9006 348.8643 22.4837 0.5019 351.2086 0.0547 359.2053 19.6803 4.3325 358.4380 343.4993 337.7948 
-1.0234 88.7668 189.7046 2.1368 357.8774 176.8239 1.8315 0.8085 358.6899 358.7014 11.0790 358.8289 1.1968 343.7140 1.9206 2.1269 8.4665 1.5948 338.1245 358.1012 9.6710 300.5256 30.2256 356.4563 19.3029 353.2143 321.6939 81.1993 359.2851 340.1164 22.9534 358.8182 354.1368 48.0322 52.1059 20.9146 334.8318 351.1935 37.9377 275.2628 349.4841 21.2374 2.8389 355.5388 357.7719 359.1686 12.8136 357.7368 354.9746 348.7850 22.5382 0.4588 351.1677 0.0825 359.1968 19.6554 4.3989 358.5738 343.4531 337.7647 
-1.0930 88.7698 189.6463 2.1436 357.8087 176.7616 1.8795 0.9033 358.7041 358.6735 10.9963 358.8474 1.1696 343.7228 1.9230 2.0634 8.4690 1.6012 338.1115 358.1337 9.7801 300.5651 30.4645 356.3535 19.3882 353.2093 321.9063 81.1065 359.1437 340.2904 22.9646 358.8170 354.0784 47.6754 52.2377 21.3417 334.7553 351.1344 38.1410 275.3577 349.2690 21.2785 2.8128 355.5058 357.7289 359.1345 12.8515 357.7291 355.0348 348.7017 22.6341 0.4282 351.1403 0.1082 359.1878 19.6344 4.4020 358.5093 343.4560 337.7807 
-1.1651 88.7750 189.5878 2.1334 357.7132 176.7056 1.8727 0.9391 358.7436 358.6181 10.9748 358.8917 1.3129 343.6000 1.9782 1.8731 8.6764 1.6481 338.1585 358.1134 9.7281 300.4828 30.1254 356.4578 19.2875 353.2375 321.7848 81.0566 359.1370 340.1252 22.9768 358.7958 354.1266 47.4585 52.4476 21.6614 334.5257 351.0060 38.3396 275.2522 349.0802 21.2737 2.7640 355.4517 357.7782 359.1311 12.8716 357.6879 355.0462 348.5880 22.6570 0.3877 351.0873 0.1749 359.1883 19.5759 4.0820 358.7441 343.4157 338.1053 
-1.2528 88.7736 189.5325 2.1062 357.5791 176.6789 1.9079 0.9681 358.7327 358.5415 10.8763 358.8894 1.3955 343.6686 2.0291 1.7475 8.6739 1.6965 338.1880 358.1586 9.6591 300.3839 29.7208 356.6155 19.0811 353.3377 321.6214 80.8870 359.2248 339.8749 23.0003 358.7934 354.1822 47.2440 52.5905 21.8957 334.4978 350.9403 38.7126 274.3933 349.7515 21.2427 2.6841 355.3218 357.7123 359.1054 12.9474 357.7310 355.1516 348.5440 22.7243 0.3085 350.9840 0.1349 359.1742 19.5715 4.1476 358.7086 343.3994 338.0788 
-1.3361 88.7740 189.4592 2.1068 357.4991 176.6023 1.9162 1.0117 358.7716 358.5625 10.9003 358.9263 1.2249 343.5920 2.0472 1.8938 8.6888 1.7314 338.1807 358.1290 9.6934 300.3199 29.5209 356.6658 19.0245 353.3318 321.4514 80.8059 359.2986 339.7867 23.0041 358.8275 354.1484 46.6267 52.6345 22.5248 334.5238 350.8891 38.9665 274.9041 349.1176 21.1771 2.6332 355.2754 357.6900 359.0916 12.9961 357.7757 355.1531 348.3911 22.7556 0.2678 350.9520 0.1487 359.1537 19.5395 4.1910 359.2893 343.2962 338.2404 
-1.4510 88.7667 189.3792 2.0671 357.4625 176.5388 1.8986 1.1258 358.8336 358.5291 10.8626 358.9943 1.2508 343.5497 2.0236 1.8026 8.7197 1.7019 338.1699 358.1271 9.7253 300.3513 29.6813 356.6516 19.0809 353.3311 321.5887 80.6236 359.1198 339.8480 22.9774 358.8021 354.1501 46.3648 52.7897 22.8832 334.2700 350.7217 39.2030 275.0832 349.2801 21.0519 2.4899 355.2849 357.6696 359.1339 13.0278 357.7930 355.2388 348.3436 22.8019 0.1239 350.9672 0.1086 359.1934 19.5101 4.2228 358.9011 343.3305 338.1787 
-1.5557 88.7609 189.3009 2.0434 357.3635 176.4910 1.9517 1.1768 358.8234 358.4596 10.8129 358.9908 1.1366 343.5193 2.0226 1.8775 8.8107 1.7140 338.1734 358.1076 9.8157 300.3251 30.0489 356.6355 19.3568 353.1900 321.7395 80.3701 359.0281 340.0665 23.0087 358.7591 353.9219 45.2608 53.3010 24.1596 334.1399 350.6743 39.0387 275.0290 349.2333 20.7179 2.4014 355.2221 357.6167 359.1080 13.0793 357.8127 355.2756 348.2511 22.8749 0.0256 350.9169 0.0146 359.1775 19.4829 4.3633 358.9604 343.2946 338.1670 
-1.6480 88.7581 189.2155 2.0544 357.2833 176.4774 1.9772 1.2412 358.8390 358.4113 10.7939 359.0113 1.2325 343.5071 2.0837 1.8135 8.7751 1.7668 338.2133 358.0744 9.8229 300.2482 29.8734 356.7097 19.3489 353.2319 321.6875 80.2414 358.9913 340.0450 23.0054 358.7793 354.0051 45.2082 53.2683 24.2900 334.1390 350.6165 39.3627 274.9164 349.1668 20.7054 2.3525 355.1659 357.5491 359.0883 13.1480 357.7976 355.4572 348.1901 22.9922 359.9766 350.9330 359.9903 359.1662 19.4003 4.3254 359.1325 343.2717 338.2879 
-1.7214 88.7599 189.1232 2.1020 357.1550 176.4833 2.0000 1.2589 358.8381 358.3884 10.7464 359.0121 1.4272 343.4801 2.1428 1.6003 8.8339 1.8130 338.2247 358.1111 9.8571 300.2683 30.0465 356.7452 19.4410 353.2101 321.7819 80.1207 358.9338 340.2592 23.0327 358.8109 354.0659 45.1213 53.3519 24.4497 333.9118 350.4762 39.6264 275.0702 349.2614 20.7649 2.3694 355.0763 357.5211 359.0529 13.1985 357.7836 355.4782 348.0933 23.0187 359.9872 350.9187 359.9950 359.3143 19.5103 3.0042 359.6685 342.7087 339.3455 
-1.8593 88.7468 189.0272 2.0561 357.0895 176.3771 2.0337 1.3331 358.8768 358.3096 10.7667 359.0593 1.4095 343.3829 2.1990 1.5842 8.8603 1.8743 338.2203 358.0756 9.9196 300.2557 30.1079 356.7834 19.5762 353.1397 321.5895 79.9803 359.0899 340.5553 22.9888 358.8154 354.1468 44.8414 53.4500 24.8320 333.7145 350.3659 39.8253 275.1807 349.1666 20.6779 2.2110 355.0554 357.5748 359.0917 13.2628 357.7854 355.5861 348.0049 23.0619 359.8317 350.9227 359.9643 359.3378 19.4424 3.0524 359.8390 342.6922 339.4371 
